<?xml version="1.0" encoding="UTF-8" ?>
<svg version="1.1" width="24" height="24" xmlns="http://www.w3.org/2000/svg" shape-rendering="crispEdges">
<rect x="0" y="0" width="1" height="1" fill="#2B4C7E" />
<rect x="1" y="0" width="1" height="1" fill="#567EBB" />
<rect x="2" y="0" width="2" height="1" fill="#2B4C7E" />
<rect x="4" y="0" width="1" height="5" fill="#FFFFFF" />
<rect x="5" y="0" width="2" height="1" fill="#2B4C7E" />
<rect x="7" y="0" width="1" height="1" fill="#567EBB" />
<rect x="8" y="0" width="1" height="1" fill="#2B4C7E" />
<rect x="9" y="0" width="1" height="1" fill="#567EBB" />
<rect x="10" y="0" width="1" height="1" fill="#2B4C7E" />
<rect x="11" y="0" width="1" height="1" fill="#567EBB" />
<rect x="12" y="0" width="1" height="1" fill="#2B4C7E" />
<rect x="13" y="0" width="1" height="2" fill="#FFFFFF" />
<rect x="14" y="0" width="2" height="1" fill="#2B4C7E" />
<rect x="16" y="0" width="1" height="1" fill="#567EBB" />
<rect x="17" y="0" width="1" height="1" fill="#2B4C7E" />
<rect x="18" y="0" width="1" height="1" fill="#567EBB" />
<rect x="19" y="0" width="2" height="1" fill="#2B4C7E" />
<rect x="21" y="0" width="1" height="1" fill="#567EBB" />
<rect x="22" y="0" width="2" height="1" fill="#2B4C7E" />
<rect x="0" y="1" width="1" height="2" fill="#DCE0E6" />
<rect x="1" y="1" width="1" height="2" fill="#FFFFFF" />
<rect x="2" y="1" width="2" height="1" fill="#DCE0E6" />
<rect x="5" y="1" width="8" height="1" fill="#FFFFFF" />
<rect x="14" y="1" width="5" height="1" fill="#FFFFFF" />
<rect x="19" y="1" width="1" height="2" fill="#DCE0E6" />
<rect x="20" y="1" width="2" height="1" fill="#FFFFFF" />
<rect x="22" y="1" width="2" height="1" fill="#DCE0E6" />
<rect x="2" y="2" width="1" height="2" fill="#DCE0E6" />
<rect x="3" y="2" width="1" height="5" fill="#FFFFFF" />
<rect x="5" y="2" width="3" height="1" fill="#FFFFFF" />
<rect x="8" y="2" width="8" height="2" fill="#2B4C7E" />
<rect x="16" y="2" width="3" height="1" fill="#FFFFFF" />
<rect x="20" y="2" width="2" height="1" fill="#DCE0E6" />
<rect x="22" y="2" width="1" height="3" fill="#FFFFFF" />
<rect x="23" y="2" width="1" height="1" fill="#DCE0E6" />
<rect x="0" y="3" width="1" height="2" fill="#FFFFFF" />
<rect x="1" y="3" width="1" height="2" fill="#DCE0E6" />
<rect x="5" y="3" width="1" height="1" fill="#FFFFFF" />
<rect x="6" y="3" width="2" height="1" fill="#2B4C7E" />
<rect x="16" y="3" width="2" height="3" fill="#2B4C7E" />
<rect x="18" y="3" width="3" height="1" fill="#FFFFFF" />
<rect x="21" y="3" width="1" height="2" fill="#DCE0E6" />
<rect x="23" y="3" width="1" height="1" fill="#FFFFFF" />
<rect x="2" y="4" width="1" height="9" fill="#FFFFFF" />
<rect x="5" y="4" width="2" height="1" fill="#2B4C7E" />
<rect x="7" y="4" width="1" height="3" fill="#567EBB" />
<rect x="8" y="4" width="5" height="1" fill="#2B4C7E" />
<rect x="13" y="4" width="2" height="1" fill="#567EBB" />
<rect x="15" y="4" width="1" height="1" fill="#2B4C7E" />
<rect x="18" y="4" width="1" height="2" fill="#2B4C7E" />
<rect x="19" y="4" width="2" height="1" fill="#FFFFFF" />
<rect x="23" y="4" width="1" height="1" fill="#DCE0E6" />
<rect x="0" y="5" width="1" height="3" fill="#DCE0E6" />
<rect x="1" y="5" width="1" height="3" fill="#FFFFFF" />
<rect x="4" y="5" width="2" height="1" fill="#2B4C7E" />
<rect x="6" y="5" width="1" height="3" fill="#567EBB" />
<rect x="8" y="5" width="1" height="1" fill="#567EBB" />
<rect x="9" y="5" width="5" height="3" fill="#2B4C7E" />
<rect x="14" y="5" width="2" height="1" fill="#567EBB" />
<rect x="19" y="5" width="1" height="7" fill="#2B4C7E" />
<rect x="20" y="5" width="2" height="2" fill="#FFFFFF" />
<rect x="22" y="5" width="1" height="2" fill="#DCE0E6" />
<rect x="23" y="5" width="1" height="2" fill="#FFFFFF" />
<rect x="4" y="6" width="1" height="6" fill="#2B4C7E" />
<rect x="5" y="6" width="1" height="1" fill="#567EBB" />
<rect x="8" y="6" width="1" height="3" fill="#2B4C7E" />
<rect x="14" y="6" width="3" height="3" fill="#2B4C7E" />
<rect x="17" y="6" width="2" height="1" fill="#567EBB" />
<rect x="3" y="7" width="1" height="4" fill="#2B4C7E" />
<rect x="5" y="7" width="1" height="5" fill="#2B4C7E" />
<rect x="7" y="7" width="1" height="2" fill="#2B4C7E" />
<rect x="17" y="7" width="1" height="3" fill="#2B4C7E" />
<rect x="18" y="7" width="1" height="1" fill="#567EBB" />
<rect x="20" y="7" width="1" height="4" fill="#2B4C7E" />
<rect x="21" y="7" width="2" height="1" fill="#FFFFFF" />
<rect x="23" y="7" width="1" height="1" fill="#DCE0E6" />
<rect x="0" y="8" width="1" height="2" fill="#FFFFFF" />
<rect x="1" y="8" width="1" height="2" fill="#DCE0E6" />
<rect x="6" y="8" width="1" height="2" fill="#2B4C7E" />
<rect x="9" y="8" width="1" height="1" fill="#2B4C7E" />
<rect x="10" y="8" width="4" height="2" fill="#567EBB" />
<rect x="18" y="8" width="1" height="4" fill="#2B4C7E" />
<rect x="21" y="8" width="1" height="7" fill="#FFFFFF" />
<rect x="22" y="8" width="1" height="3" fill="#DCE0E6" />
<rect x="23" y="8" width="1" height="2" fill="#FFFFFF" />
<rect x="7" y="9" width="3" height="1" fill="#567EBB" />
<rect x="14" y="9" width="3" height="1" fill="#567EBB" />
<rect x="0" y="10" width="1" height="1" fill="#DCE0E6" />
<rect x="1" y="10" width="1" height="3" fill="#FFFFFF" />
<rect x="6" y="10" width="3" height="1" fill="#567EBB" />
<rect x="9" y="10" width="6" height="1" fill="#2B4C7E" />
<rect x="15" y="10" width="3" height="1" fill="#567EBB" />
<rect x="23" y="10" width="1" height="1" fill="#DCE0E6" />
<rect x="0" y="11" width="1" height="6" fill="#FFFFFF" />
<rect x="3" y="11" width="1" height="2" fill="#FFFFFF" />
<rect x="6" y="11" width="1" height="2" fill="#2B4C7E" />
<rect x="7" y="11" width="2" height="1" fill="#567EBB" />
<rect x="9" y="11" width="1" height="4" fill="#2B4C7E" />
<rect x="10" y="11" width="4" height="2" fill="#FFFFFF" />
<rect x="14" y="11" width="1" height="4" fill="#2B4C7E" />
<rect x="15" y="11" width="2" height="1" fill="#567EBB" />
<rect x="17" y="11" width="1" height="2" fill="#2B4C7E" />
<rect x="20" y="11" width="1" height="2" fill="#FFFFFF" />
<rect x="22" y="11" width="2" height="3" fill="#FFFFFF" />
<rect x="4" y="12" width="2" height="2" fill="#FFFFFF" />
<rect x="7" y="12" width="2" height="1" fill="#2B4C7E" />
<rect x="15" y="12" width="2" height="1" fill="#2B4C7E" />
<rect x="18" y="12" width="2" height="1" fill="#FFFFFF" />
<rect x="1" y="13" width="3" height="1" fill="#2B4C7E" />
<rect x="6" y="13" width="3" height="1" fill="#FFFFFF" />
<rect x="10" y="13" width="1" height="4" fill="#FFFFFF" />
<rect x="11" y="13" width="1" height="1" fill="#567EBB" />
<rect x="12" y="13" width="2" height="2" fill="#FFFFFF" />
<rect x="15" y="13" width="3" height="1" fill="#FFFFFF" />
<rect x="18" y="13" width="3" height="1" fill="#2B4C7E" />
<rect x="1" y="14" width="1" height="2" fill="#2B4C7E" />
<rect x="2" y="14" width="1" height="1" fill="#567EBB" />
<rect x="3" y="14" width="1" height="2" fill="#2B4C7E" />
<rect x="4" y="14" width="2" height="1" fill="#DCE0E6" />
<rect x="6" y="14" width="2" height="2" fill="#FFFFFF" />
<rect x="8" y="14" width="1" height="3" fill="#2B4C7E" />
<rect x="11" y="14" width="1" height="3" fill="#FFFFFF" />
<rect x="15" y="14" width="1" height="3" fill="#2B4C7E" />
<rect x="16" y="14" width="2" height="2" fill="#FFFFFF" />
<rect x="18" y="14" width="1" height="2" fill="#2B4C7E" />
<rect x="19" y="14" width="1" height="1" fill="#567EBB" />
<rect x="20" y="14" width="1" height="2" fill="#2B4C7E" />
<rect x="22" y="14" width="1" height="1" fill="#DCE0E6" />
<rect x="23" y="14" width="1" height="3" fill="#FFFFFF" />
<rect x="2" y="15" width="1" height="1" fill="#2B4C7E" />
<rect x="4" y="15" width="1" height="8" fill="#2B4C7E" />
<rect x="5" y="15" width="1" height="9" fill="#FFFFFF" />
<rect x="9" y="15" width="1" height="2" fill="#FFFFFF" />
<rect x="12" y="15" width="1" height="1" fill="#567EBB" />
<rect x="13" y="15" width="2" height="2" fill="#FFFFFF" />
<rect x="19" y="15" width="1" height="7" fill="#2B4C7E" />
<rect x="21" y="15" width="1" height="2" fill="#DCE0E6" />
<rect x="22" y="15" width="1" height="2" fill="#FFFFFF" />
<rect x="1" y="16" width="1" height="1" fill="#FFFFFF" />
<rect x="2" y="16" width="2" height="1" fill="#DCE0E6" />
<rect x="6" y="16" width="1" height="1" fill="#FFFFFF" />
<rect x="7" y="16" width="1" height="2" fill="#2B4C7E" />
<rect x="12" y="16" width="1" height="1" fill="#FFFFFF" />
<rect x="16" y="16" width="1" height="2" fill="#2B4C7E" />
<rect x="17" y="16" width="2" height="1" fill="#FFFFFF" />
<rect x="20" y="16" width="1" height="1" fill="#DCE0E6" />
<rect x="0" y="17" width="3" height="1" fill="#2B4C7E" />
<rect x="3" y="17" width="1" height="5" fill="#FFFFFF" />
<rect x="6" y="17" width="1" height="5" fill="#2B4C7E" />
<rect x="8" y="17" width="3" height="2" fill="#DCE0E6" />
<rect x="11" y="17" width="2" height="2" fill="#567EBB" />
<rect x="13" y="17" width="3" height="4" fill="#DCE0E6" />
<rect x="17" y="17" width="1" height="5" fill="#2B4C7E" />
<rect x="18" y="17" width="1" height="7" fill="#FFFFFF" />
<rect x="20" y="17" width="1" height="4" fill="#FFFFFF" />
<rect x="21" y="17" width="3" height="1" fill="#2B4C7E" />
<rect x="0" y="18" width="1" height="2" fill="#2B4C7E" />
<rect x="1" y="18" width="1" height="1" fill="#567EBB" />
<rect x="2" y="18" width="1" height="2" fill="#2B4C7E" />
<rect x="7" y="18" width="1" height="3" fill="#DCE0E6" />
<rect x="16" y="18" width="1" height="3" fill="#DCE0E6" />
<rect x="21" y="18" width="1" height="2" fill="#2B4C7E" />
<rect x="22" y="18" width="1" height="1" fill="#567EBB" />
<rect x="23" y="18" width="1" height="2" fill="#2B4C7E" />
<rect x="1" y="19" width="1" height="3" fill="#2B4C7E" />
<rect x="8" y="19" width="1" height="3" fill="#DCE0E6" />
<rect x="9" y="19" width="2" height="2" fill="#567EBB" />
<rect x="11" y="19" width="2" height="4" fill="#DCE0E6" />
<rect x="22" y="19" width="1" height="3" fill="#2B4C7E" />
<rect x="0" y="20" width="1" height="4" fill="#FFFFFF" />
<rect x="2" y="20" width="1" height="1" fill="#FFFFFF" />
<rect x="21" y="20" width="1" height="1" fill="#FFFFFF" />
<rect x="23" y="20" width="1" height="4" fill="#FFFFFF" />
<rect x="2" y="21" width="1" height="2" fill="#2B4C7E" />
<rect x="7" y="21" width="1" height="2" fill="#2B4C7E" />
<rect x="9" y="21" width="2" height="2" fill="#DCE0E6" />
<rect x="13" y="21" width="1" height="1" fill="#567EBB" />
<rect x="14" y="21" width="2" height="1" fill="#DCE0E6" />
<rect x="16" y="21" width="1" height="2" fill="#2B4C7E" />
<rect x="20" y="21" width="2" height="1" fill="#2B4C7E" />
<rect x="1" y="22" width="1" height="2" fill="#FFFFFF" />
<rect x="3" y="22" width="1" height="2" fill="#2B4C7E" />
<rect x="6" y="22" width="1" height="2" fill="#FFFFFF" />
<rect x="8" y="22" width="1" height="2" fill="#2B4C7E" />
<rect x="13" y="22" width="2" height="1" fill="#DCE0E6" />
<rect x="15" y="22" width="1" height="2" fill="#2B4C7E" />
<rect x="17" y="22" width="1" height="2" fill="#FFFFFF" />
<rect x="19" y="22" width="1" height="2" fill="#FFFFFF" />
<rect x="20" y="22" width="1" height="2" fill="#2B4C7E" />
<rect x="21" y="22" width="2" height="2" fill="#FFFFFF" />
<rect x="2" y="23" width="1" height="1" fill="#FFFFFF" />
<rect x="4" y="23" width="1" height="1" fill="#FFFFFF" />
<rect x="7" y="23" width="1" height="1" fill="#FFFFFF" />
<rect x="9" y="23" width="6" height="1" fill="#2B4C7E" />
<rect x="16" y="23" width="1" height="1" fill="#FFFFFF" />
</svg>